HIERARCHY
ROOT Hips
{
	OFFSET -0.001795 -0.223333 0.028219
	CHANNELS 6 Xposition Yposition Zposition Zrotation Yrotation Xrotation 
	JOINT LeftUpLeg
	{
		OFFSET 0.069520 -0.091406 -0.006815
		CHANNELS 3 Zrotation Yrotation Xrotation
		JOINT LeftLeg
		{
			OFFSET 0.034277 -0.375199 -0.004496
			CHANNELS 3 Zrotation Yrotation Xrotation
			JOINT LeftFoot
			{
				OFFSET -0.013596 -0.397961 -0.043693
				CHANNELS 3 Zrotation Yrotation Xrotation
				JOINT LeftToe
				{
					OFFSET 0.026358 -0.055791 0.119288
					CHANNELS 3 Zrotation Yrotation Xrotation
					End Site
					{
						OFFSET 0.000000 0.000000 0.000000
					}
				}
			}
		}
	}
	JOINT RightUpLeg
	{
		OFFSET -0.067670 -0.090522 -0.004320
		CHANNELS 3 Zrotation Yrotation Xrotation
		JOINT RightLeg
		{
			OFFSET -0.038290 -0.382569 -0.008850
			CHANNELS 3 Zrotation Yrotation Xrotation
			JOINT RightFoot
			{
				OFFSET 0.015774 -0.398415 -0.042312
				CHANNELS 3 Zrotation Yrotation Xrotation
				JOINT RightToe
				{
					OFFSET -0.025372 -0.048144 0.123348
					CHANNELS 3 Zrotation Yrotation Xrotation
					End Site
					{
						OFFSET 0.000000 0.000000 0.000000
					}
				}
			}
		}
	}
	JOINT Spine
	{
		OFFSET -0.002533 0.108963 -0.026696
		CHANNELS 3 Zrotation Yrotation Xrotation
		JOINT Spine1
		{
			OFFSET 0.005487 0.135180 0.001092
			CHANNELS 3 Zrotation Yrotation Xrotation
			JOINT Spine2
			{
				OFFSET 0.001457 0.052922 0.025425
				CHANNELS 3 Zrotation Yrotation Xrotation
				JOINT Neck
				{
					OFFSET -0.002778 0.213870 -0.042857
					CHANNELS 3 Zrotation Yrotation Xrotation
					JOINT Head
					{
						OFFSET 0.005152 0.064970 0.051349
						CHANNELS 3 Zrotation Yrotation Xrotation
						End Site
						{
							OFFSET 0.000000 0.000000 0.000000
						}
					}
				}
				JOINT LeftShoulder
				{
					OFFSET 0.078845 0.121749 -0.034090
					CHANNELS 3 Zrotation Yrotation Xrotation
					JOINT LeftArm
					{
						OFFSET 0.090977 0.030469 -0.008868
						CHANNELS 3 Zrotation Yrotation Xrotation
						JOINT LeftForeArm
						{
							OFFSET 0.259612 -0.012772 -0.027456
							CHANNELS 3 Zrotation Yrotation Xrotation
							JOINT LeftHand
							{
								OFFSET 0.249234 0.008986 -0.001171
								CHANNELS 3 Zrotation Yrotation Xrotation
								End Site
								{
									OFFSET 0.000000 0.000000 0.000000
								}
							}
						}
					}
				}
				JOINT RightShoulder
				{
					OFFSET -0.081759 0.118833 -0.038615
					CHANNELS 3 Zrotation Yrotation Xrotation
					JOINT RightArm
					{
						OFFSET -0.096012 0.032551 -0.009143
						CHANNELS 3 Zrotation Yrotation Xrotation
						JOINT RightForeArm
						{
							OFFSET -0.253742 -0.013329 -0.021401
							CHANNELS 3 Zrotation Yrotation Xrotation
							JOINT RightHand
							{
								OFFSET -0.255298 0.007772 -0.005559
								CHANNELS 3 Zrotation Yrotation Xrotation
								End Site
								{
									OFFSET 0.000000 0.000000 0.000000
								}
							}
						}
					}
				}
			}
		}
	}
}
MOTION
Frames: 14
Frame Time: 0.050000
-0.177817 0.941793 -0.039666 -10.716602 -28.016273 -1.729822 1.153871 0.863567 6.647112 -0.549453 0.562845 14.104996 7.338126 17.400632 -1.127359 0.000000 0.000000 0.000000 -12.387032 2.797640 -30.558724 18.454849 -1.301557 45.965551 -23.876068 -40.105042 33.745820 0.000000 0.000000 0.000000 1.021111 0.065115 -1.209415 3.176633 -1.560267 -6.592118 -4.067854 2.452974 2.906254 7.119639 -4.740595 -11.327568 0.000000 0.000000 0.000000 18.756479 -13.065463 2.027704 1.631778 -38.651714 -1.122636 59.422015 -32.437777 -13.797065 0.000000 0.000000 0.000000 -10.302240 10.898489 4.655632 -6.046362 41.061869 -5.937301 -12.940880 24.941177 -2.566879 0.000000 0.000000 0.000000 
-0.178180 0.946082 -0.040406 -14.440559 -18.917617 -4.111230 8.535888 0.831343 8.819660 -0.248398 0.123035 16.584214 5.300868 11.820149 -6.116100 0.000000 0.000000 0.000000 -16.524055 1.594877 -39.941814 15.132118 -2.490212 46.134763 -14.430440 -32.915382 9.942249 0.000000 0.000000 0.000000 2.665261 -0.168895 3.112275 3.271215 -1.557771 -4.693642 -3.702989 -5.328871 -0.409299 6.532117 -4.720061 -5.079544 0.000000 0.000000 0.000000 14.148747 -18.467634 4.097083 9.378764 -41.070481 -3.095733 52.552086 -32.350725 -12.269979 0.000000 0.000000 0.000000 -11.821471 13.748694 5.486962 -9.121572 32.437381 -5.019687 -4.062353 15.292798 -0.266788 0.000000 0.000000 0.000000 
-0.181661 0.944197 -0.040765 -17.253875 -13.456851 -9.309254 14.349295 0.554073 12.990213 0.867364 -0.522555 16.385657 3.106298 4.935424 -7.575915 0.000000 0.000000 0.000000 -19.554457 -0.533999 -45.317404 11.717081 -2.172907 39.322964 -12.586099 -33.091535 -13.353595 0.000000 0.000000 0.000000 3.171851 -0.535144 10.082633 5.361883 -2.509357 -4.092905 -5.895655 -9.540774 -2.436794 9.227208 -6.575859 -4.193483 0.000000 0.000000 0.000000 12.095335 -20.711109 5.098406 11.444634 -47.458890 -4.429342 50.576097 -33.425866 -12.725760 0.000000 0.000000 0.000000 -13.222190 13.570752 5.561154 -8.297001 33.529438 -4.918399 -2.787973 7.850781 0.022185 0.000000 0.000000 0.000000 
-0.186948 0.934839 -0.039980 -19.177524 -8.460889 -13.629138 18.937748 -0.227925 15.331074 0.384239 -0.676159 17.749561 2.997797 2.343001 -10.660039 0.000000 0.000000 0.000000 -25.753602 -5.036636 -50.567835 15.005306 -3.728561 27.709789 -12.572092 -32.096214 -14.648920 0.000000 0.000000 0.000000 2.826815 -0.794329 14.643538 6.462127 -3.059492 -3.506441 -6.773083 -12.261034 -3.037748 11.165528 -7.993145 -3.927863 0.000000 0.000000 0.000000 10.811254 -25.028287 6.530345 10.189343 -47.694132 -4.196169 54.558540 -36.663894 -15.948662 0.000000 0.000000 0.000000 -14.290796 15.218011 5.805362 -7.224262 32.059574 -4.233951 -1.682755 7.259258 0.092495 0.000000 0.000000 0.000000 
-0.189690 0.923846 -0.039724 -20.114219 -6.461953 -18.301946 21.378416 -0.866717 18.054786 -0.090405 -0.829065 20.831251 3.902786 2.525410 -13.782382 0.000000 0.000000 0.000000 -27.225726 -7.486260 -54.913318 13.892833 -2.829979 17.751110 -18.346071 -34.743298 13.059085 0.000000 0.000000 0.000000 3.477882 -1.097881 18.128420 5.272047 -2.726694 -0.900239 -5.883206 -12.242331 -3.642463 11.379012 -7.805191 -6.547116 0.000000 0.000000 0.000000 9.052485 -25.659170 6.992584 2.727864 -49.565623 -1.937964 57.628809 -43.005955 -20.866421 0.000000 0.000000 0.000000 -16.612007 16.652375 5.945924 -3.536245 29.666992 -2.856906 -2.476258 8.932299 0.050900 0.000000 0.000000 0.000000 
-0.190579 0.911298 -0.042571 -19.671485 -3.569361 -20.700476 22.293357 -1.174215 16.707169 -0.396587 -1.166425 25.470106 5.180628 4.354439 -15.967239 0.000000 0.000000 0.000000 -28.318709 -9.135856 -53.349864 10.988681 -1.701745 8.852963 -17.180522 -30.644097 21.946171 0.000000 0.000000 0.000000 4.082780 -1.504244 21.182184 4.279845 -2.079034 -2.368376 -6.897125 -11.995941 -1.071679 12.531505 -8.038651 -11.392654 0.000000 0.000000 0.000000 10.528247 -25.384641 6.338709 -5.296608 -46.201372 0.638025 59.690496 -50.124085 -26.132071 0.000000 0.000000 0.000000 -19.091129 15.112436 5.409796 0.021460 29.054002 -2.008811 -2.475559 11.321557 0.044655 0.000000 0.000000 0.000000 
-0.194073 0.900298 -0.047661 -18.515508 -0.553963 -20.850801 21.239008 -1.129094 14.622145 -0.910702 -1.392578 28.976119 6.764402 7.851953 -17.444823 0.000000 0.000000 0.000000 -27.219670 -8.570360 -47.613911 5.988687 -0.725794 2.594428 -15.692524 -28.159470 24.484849 0.000000 0.000000 0.000000 3.240955 -1.522973 21.409046 3.930818 -1.765594 -3.569023 -7.738731 -10.440375 1.184606 11.005379 -6.591143 -14.112176 0.000000 0.000000 0.000000 13.818004 -22.241010 4.965564 -10.481430 -41.745588 1.643740 58.124619 -50.953121 -26.056838 0.000000 0.000000 0.000000 -18.985217 15.495009 4.936222 3.927818 23.811113 -0.892413 -4.233572 16.003154 -0.179451 0.000000 0.000000 0.000000 
-0.205234 0.889173 -0.052159 -16.668466 2.125899 -18.019299 20.787653 -0.756349 8.913740 -3.677981 -0.690908 33.026125 7.934680 10.020439 -20.018735 0.000000 0.000000 0.000000 -23.438879 -6.548332 -43.569510 5.303849 -0.689334 5.379323 -15.457456 -29.275706 14.861711 0.000000 0.000000 0.000000 1.533400 -1.193105 18.877773 2.222782 -0.840826 -4.179649 -7.690655 -8.673853 1.680380 10.234945 -6.479624 -10.772455 0.000000 0.000000 0.000000 16.746272 -21.770249 4.739776 -11.695184 -34.665911 1.086214 45.570154 -44.691931 -16.958041 0.000000 0.000000 0.000000 -15.752761 13.093685 4.263848 6.622395 21.111349 -0.436495 -6.776613 20.352044 -0.637292 0.000000 0.000000 0.000000 
-0.224292 0.878877 -0.052121 -13.822737 4.738697 -13.142917 20.039959 -0.428935 2.491452 -5.379240 -0.180498 35.467246 8.938785 12.934505 -20.956738 0.000000 0.000000 0.000000 -22.158057 -5.805309 -41.557202 10.649122 -2.196636 14.070524 -11.036542 -22.669349 17.215122 0.000000 0.000000 0.000000 -2.070119 -0.666247 16.227812 3.825205 -1.452196 -5.448958 -10.701460 -9.907500 1.943370 13.290530 -8.252377 -11.399477 0.000000 0.000000 0.000000 16.418238 -13.120979 3.250724 -11.162410 -33.350942 0.828921 34.463876 -36.046489 -9.388072 0.000000 0.000000 0.000000 -14.159170 11.384079 4.000356 10.332841 19.149178 -0.138880 -9.914446 22.084107 -1.278001 0.000000 0.000000 0.000000 
-0.246020 0.862851 -0.045421 -11.831491 5.717804 -10.507543 20.594813 -0.214887 -1.396803 -8.757833 1.149457 40.620755 8.755520 12.581498 -21.328887 0.000000 0.000000 0.000000 -17.566318 -3.594741 -39.137831 9.149086 -2.209882 19.504335 -10.751737 -21.880458 25.274291 0.000000 0.000000 0.000000 -4.285326 -0.350074 13.905975 2.118077 -0.559495 -7.192282 -11.121207 -10.087103 2.357881 10.695360 -6.864884 -9.551398 0.000000 0.000000 0.000000 14.919986 -8.526252 2.457193 -11.130943 -29.327164 0.468300 28.044974 -29.711052 -5.863285 0.000000 0.000000 0.000000 -11.222570 6.277895 2.839365 14.769388 16.270964 0.034557 -8.841202 25.039333 -1.292433 0.000000 0.000000 0.000000 
-0.264229 0.841230 -0.032928 -10.847250 5.003165 -7.892841 21.834541 -0.210528 -2.143524 -12.045238 2.986323 40.955997 9.622849 14.821699 -26.569442 0.000000 0.000000 0.000000 -12.021087 -1.157560 -38.614549 6.655020 -1.633888 23.968157 -8.856792 -19.726964 25.404067 0.000000 0.000000 0.000000 -7.168896 -0.028283 11.699604 2.781645 -0.788259 -8.304350 -10.471089 -9.335557 1.193019 9.523862 -6.053788 -8.943883 0.000000 0.000000 0.000000 12.951797 -1.267806 0.988049 -10.870762 -25.986423 0.196907 22.513318 -24.581620 -3.586408 0.000000 0.000000 0.000000 -8.076019 0.897543 1.296798 18.379165 13.099748 -0.064576 -7.103293 28.105643 -1.078194 0.000000 0.000000 0.000000 
-0.273907 0.822193 -0.021824 -10.952770 2.464508 -7.611426 22.695063 -0.209893 -0.249838 -14.859481 4.838490 40.707221 10.481481 19.092762 -31.362185 0.000000 0.000000 0.000000 -7.033941 1.080306 -39.344969 3.196947 -0.311466 26.187389 -8.038755 -19.047743 27.522864 0.000000 0.000000 0.000000 -7.396028 0.025847 10.757197 3.798559 -1.301371 -7.769622 -10.031639 -7.897722 -2.015107 7.108351 -4.693165 -5.812534 0.000000 0.000000 0.000000 10.320219 3.082369 -0.060981 -11.744994 -20.474321 0.002346 21.547743 -20.877677 -2.856472 0.000000 0.000000 0.000000 -5.310694 -1.937989 0.200688 22.103712 9.716620 -0.298607 -4.968559 30.400948 -0.632506 0.000000 0.000000 0.000000 
-0.275818 0.813365 -0.016594 -10.889609 1.363277 -8.175860 22.446449 -0.041541 -0.529039 -15.975258 5.754646 42.520656 11.139334 23.196061 -32.896492 0.000000 0.000000 0.000000 -6.079008 1.583265 -39.420532 3.919628 -0.494559 26.883685 -10.389220 -22.238094 27.180412 0.000000 0.000000 0.000000 -6.805162 -0.018827 10.248361 4.077599 -1.499656 -7.003160 -9.559079 -7.878784 -4.338396 6.129572 -4.004424 -5.176084 0.000000 0.000000 0.000000 8.602100 6.880502 -1.179615 -12.885100 -16.771946 -0.123320 21.127086 -19.539796 -2.548435 0.000000 0.000000 0.000000 -4.823857 -3.871586 -0.353579 25.979257 7.004933 -0.677803 -2.710806 34.971939 -0.193109 0.000000 0.000000 0.000000 
-0.273960 0.808740 -0.018173 -10.893869 0.888264 -9.489810 22.389162 0.047025 -0.353953 -16.726455 6.267505 43.471721 11.527769 25.749226 -34.765629 0.000000 0.000000 0.000000 -5.334148 1.930677 -40.283323 4.715281 -0.792061 29.636506 -13.638457 -26.331487 27.021731 0.000000 0.000000 0.000000 -5.923559 -0.097862 10.432320 4.323512 -1.686483 -6.177109 -9.269628 -7.383114 -4.835954 5.588111 -4.050778 -1.703164 0.000000 0.000000 0.000000 5.693387 8.351690 -1.938185 -12.102109 -15.802098 -0.213341 22.020873 -18.415474 -2.563535 0.000000 0.000000 0.000000 -2.991627 -4.514604 -0.868510 26.917672 3.856830 -1.252208 -0.773396 39.394514 0.413974 0.000000 0.000000 0.000000 
